<svg width="70" height="71" viewBox="0 0 70 71" fill="none" xmlns="http://www.w3.org/2000/svg">
<path d="M57.9208 22.298L69.5994 10.6194C70.1298 10.0941 70.134 9.23829 69.6087 8.70775C69.3659 8.46258 69.0386 8.31947 68.6938 8.30798L68.7343 8.38909L62.3814 8.17281L62.1651 1.81985C62.1399 1.07372 61.5148 0.48928 60.7686 0.514456C60.4238 0.526114 60.0963 0.669056 59.8537 0.914219L48.1886 12.5253C47.9253 12.7902 47.7834 13.1523 47.7966 13.5255V14.8772C33.9274 5.32294 14.9391 8.82095 5.38482 22.69C-4.16945 36.5591 -0.671608 55.5475 13.1976 65.1018C27.0667 74.656 46.0551 71.158 55.6094 57.289C62.7853 46.8723 62.7853 33.1068 55.6094 22.69H56.9611C57.3203 22.692 57.6656 22.5509 57.9208 22.298ZM58.3263 40.0052C58.3466 55.3686 45.9084 67.8394 30.5451 67.8597C15.1817 67.88 2.71084 55.4419 2.69056 40.0785C2.67029 24.7152 15.1084 12.2443 30.4718 12.224C36.833 12.2156 43.0048 14.3877 47.9588 18.3781L48.0264 20.6354L42.6196 26.0422C34.9283 19.3011 23.2285 20.0716 16.4875 27.7629C9.7464 35.4542 10.5169 47.154 18.2082 53.895C25.8995 60.6361 37.5992 59.8656 44.3403 52.1743C50.3969 45.2638 50.4701 34.9573 44.512 27.9616L49.9187 22.5548L52.149 22.6359C56.1244 27.5542 58.3033 33.6813 58.3263 40.0052ZM29.6433 40.9108C30.1705 41.435 31.0221 41.435 31.5492 40.9108L34.2526 38.2075C34.516 38.7512 34.6546 39.3469 34.6581 39.9511C34.6581 42.1907 32.8426 44.0062 30.603 44.0062C28.3634 44.0062 26.548 42.1907 26.548 39.9511C26.548 37.7115 28.3634 35.8961 30.603 35.8961C31.2072 35.8996 31.803 36.0382 32.3467 36.3016L29.6433 39.0049C29.1192 39.5321 29.1192 40.3837 29.6433 40.9108ZM34.3202 34.3146C31.2076 32.2546 27.0143 33.1078 24.9543 36.2205C22.8943 39.3331 23.7476 43.5264 26.8602 45.5863C29.9728 47.6463 34.1661 46.7931 36.2261 43.6805C37.7227 41.4189 37.7227 38.4818 36.2261 36.2205L42.6331 29.8134C48.2499 36.4827 47.3965 46.4425 40.7272 52.0593C34.058 57.6761 24.0982 56.8226 18.4814 50.1534C12.8646 43.4841 13.718 33.5243 20.3873 27.9075C26.2641 22.9583 34.8504 22.9583 40.7272 27.9075L34.3202 34.3146ZM50.7568 19.7974L50.5676 14.0392L59.6239 4.98282L59.7726 9.48396C59.7726 10.2304 60.3778 10.8357 61.1243 10.8357L65.6254 10.9843L56.515 19.9866L50.7568 19.7974Z" fill="#381DDB"/>
</svg>
