<svg width="70" height="71" viewBox="0 0 70 71" fill="none" xmlns="http://www.w3.org/2000/svg">
<g clip-path="url(#clip0)">
<path d="M49.6777 19.6936H51.9358V21.9517H49.6777V19.6936Z" fill="white"/>
<path d="M4.51758 46.7903H6.77564V49.0483H4.51758V46.7903Z" fill="white"/>
<path d="M64.3548 19.6937H56.3375C55.8127 17.1208 53.5331 15.1775 50.8064 15.1775C48.0798 15.1775 45.8002 17.1208 45.2754 19.6937H41.3872C39.8794 19.6937 38.4615 20.2819 37.3959 21.3475L34.3958 24.3465C33.7646 24.9777 32.8919 25.3388 31.9999 25.3388H30.4839V19.6937H31.6129C32.8583 19.6937 33.871 18.6809 33.871 17.4356V6.14527C33.871 4.89992 32.8583 3.88721 31.6129 3.88721H6.77419C5.52884 3.88721 4.51613 4.89992 4.51613 6.14527V17.4356C4.51613 18.6809 5.52884 19.6937 6.77419 19.6937H7.90323V25.8173C5.91253 26.6917 4.51613 28.6752 4.51613 30.984V42.3884C1.94328 42.9132 0 45.1939 0 47.9195C0 50.645 1.94328 52.9257 4.51613 53.4505V59.2098C4.51613 62.3223 7.04873 64.8549 10.1613 64.8549H20.3226C20.3226 66.1003 21.3353 67.113 22.5806 67.113H36.129C37.3744 67.113 38.3871 66.1003 38.3871 64.8549H44.0323C47.1448 64.8549 49.6774 62.3223 49.6774 59.2098V54.6937C49.6774 52.8265 51.1973 51.3066 53.0645 51.3066H58.7097V49.0485H53.0645C49.952 49.0485 47.4194 51.5811 47.4194 54.6937V59.2098C47.4194 61.077 45.8995 62.5969 44.0323 62.5969H38.3871C38.3871 61.3515 37.3744 60.3388 36.129 60.3388H35.8512L31.8792 46.4382C31.56 45.3146 30.5214 44.5324 29.3548 44.5324C28.1883 44.5324 27.1497 45.3146 26.8305 46.4382L22.8585 60.3388H22.5806C21.3353 60.3388 20.3226 61.3515 20.3226 62.5969H10.1613C8.29409 62.5969 6.77419 61.077 6.77419 59.2098V53.4505C9.34704 52.9257 11.2903 50.6461 11.2903 47.9195C11.2903 45.1928 9.34704 42.9132 6.77419 42.3884V30.984C6.77419 29.1168 8.29409 27.5969 10.1613 27.5969H14.6774V25.3388H10.1613V19.6937H28.2258V25.3388H16.9355V27.5969H31.9999C33.5077 27.5969 34.9256 27.0087 35.9912 25.943L38.9913 22.944C39.6225 22.3128 40.4952 21.9517 41.3872 21.9517H45.2754C45.8002 24.5246 48.0798 26.4679 50.8064 26.4679C53.5331 26.4679 55.8127 24.5246 56.3375 21.9517H64.3548C66.222 21.9517 67.7419 23.4716 67.7419 25.3388V45.6614C67.7419 47.5286 66.222 49.0485 64.3548 49.0485H60.9677V51.3066H64.3548C67.4674 51.3066 70 48.774 70 45.6614V25.3388C70 22.2263 67.4674 19.6937 64.3548 19.6937ZM29.0015 47.0567C29.0919 46.7441 29.6189 46.7441 29.7093 47.0567L33.5027 60.3388H25.2059L29.0015 47.0567ZM22.5806 62.5969H36.129L36.1301 64.8549H22.5806V62.5969ZM9.03226 47.9195C9.03226 49.7867 7.51236 51.3066 5.64516 51.3066C3.77796 51.3066 2.25806 49.7867 2.25806 47.9195C2.25806 46.0523 3.77796 44.5324 5.64516 44.5324C7.51236 44.5324 9.03226 46.0523 9.03226 47.9195ZM27.0968 17.4356V12.9195H31.614L31.6151 17.4356H27.0968ZM18.0645 10.6614H13.5484V6.14527H18.0645V10.6614ZM20.3226 6.14527H24.8387V10.6614H20.3226V6.14527ZM18.0645 12.9195V17.4356H13.5484V12.9195H18.0645ZM20.3226 12.9195H24.8387V17.4356H20.3226V12.9195ZM31.614 10.6614H27.0968V6.14527H31.6129L31.614 10.6614ZM11.2903 6.14527V10.6614H6.77419V6.14527H11.2903ZM6.77419 12.9195H11.2903V17.4356H6.77419V12.9195ZM50.8064 24.2098C48.9392 24.2098 47.4194 22.6899 47.4194 20.8227C47.4194 18.9555 48.9392 17.4356 50.8064 17.4356C52.6737 17.4356 54.1936 18.9555 54.1936 20.8227C54.1936 22.6899 52.6737 24.2098 50.8064 24.2098Z" fill="white"/>
</g>
<defs>
<clipPath id="clip0">
<rect width="70" height="70" fill="white" transform="translate(0 0.5)"/>
</clipPath>
</defs>
</svg>
