<svg width="14" height="15" viewBox="0 0 14 15" fill="none" xmlns="http://www.w3.org/2000/svg">
<path fill-rule="evenodd" clip-rule="evenodd" d="M7.10912 1.82636C7.49322 1.45794 8.11355 1.45794 8.49765 1.82636L13.7092 6.82529C14.0969 7.19721 14.0969 7.80287 13.7092 8.17479L8.49778 13.1737C8.30509 13.3584 8.05342 13.45 7.80352 13.45C7.55363 13.45 7.30193 13.3585 7.10928 13.1737C6.72154 12.8018 6.72151 12.1961 7.10925 11.8242L10.6257 8.45112H0.985036C0.447111 8.45112 0 8.03113 0 7.50004C0 6.96888 0.44712 6.54896 0.985036 6.54896H10.6257L7.10912 3.17587C6.72138 2.80394 6.72138 2.19829 7.10912 1.82636Z" fill="#381DDB"/>
</svg>
