<svg width="20" height="20" viewBox="0 0 20 20" fill="none" xmlns="http://www.w3.org/2000/svg">
<path fill-rule="evenodd" clip-rule="evenodd" d="M1.66667 10C1.66667 14.6024 5.39763 18.3333 10 18.3333C14.6024 18.3333 18.3333 14.6024 18.3333 10C18.3333 5.39763 14.6024 1.66667 10 1.66667C5.39763 1.66667 1.66667 5.39763 1.66667 10ZM1.47023e-06 10C1.22882e-06 15.5228 4.47715 20 10 20C15.5228 20 20 15.5228 20 10C20 4.47715 15.5228 -1.95703e-07 10 -4.37114e-07C4.47715 -6.78525e-07 1.71165e-06 4.47715 1.47023e-06 10Z" fill="#D4EAF2"/>
<path d="M6.50149 7.85689C6.84804 7.49229 7.41917 7.49231 7.76567 7.85704L9.99998 10.2089L12.2342 7.85712C12.5808 7.4925 13.1519 7.49232 13.4985 7.85705C13.8337 8.20978 13.8337 8.77335 13.4986 9.12605L10.632 12.1434C10.4613 12.3229 10.2323 12.4168 9.99999 12.4168C9.7675 12.4168 9.53844 12.3228 9.36782 12.1432L6.50135 9.12597C6.16618 8.77327 6.1662 8.20961 6.50149 7.85689Z" fill="#D4EAF2"/>
</svg>
