<svg width="70" height="71" viewBox="0 0 70 71" fill="none" xmlns="http://www.w3.org/2000/svg">
<path d="M2.25801 9.53204H38.3862V11.7901H40.6442V6.14503C40.6442 3.03236 38.1118 0.5 34.9992 0.5H5.64503C2.53236 0.5 0 3.03236 0 6.14503V56.9503H2.25801V9.53204ZM2.25801 6.14503C2.25801 4.27765 3.77765 2.75801 5.64503 2.75801H34.9992C36.8665 2.75801 38.3862 4.27765 38.3862 6.14503V7.27403H2.25801V6.14503Z" fill="#381DDB"/>
<path d="M0 64.855C0 67.9677 2.53236 70.5 5.64503 70.5H34.9992C38.1118 70.5 40.6442 67.9677 40.6442 64.855V59.21H0V64.855ZM2.25801 61.468H38.3862V64.855C38.3862 66.7224 36.8665 68.242 34.9992 68.242H5.64503C3.77765 68.242 2.25801 66.7224 2.25801 64.855V61.468Z" fill="#381DDB"/>
<path d="M25.9678 63.7236H14.6777V65.9817H25.9678V63.7236Z" fill="#381DDB"/>
<path d="M50.8033 35.4993C47.0674 35.4993 44.0293 38.5374 44.0293 42.2733C44.0293 46.0092 47.0674 49.0473 50.8033 49.0473C54.5392 49.0473 57.5774 46.0092 57.5774 42.2733C57.5774 38.5374 54.5392 35.4993 50.8033 35.4993ZM50.8033 46.7893C48.3127 46.7893 46.2873 44.7639 46.2873 42.2733C46.2873 39.7827 48.3127 37.7573 50.8033 37.7573C53.2939 37.7573 55.3193 39.7827 55.3193 42.2733C55.3193 44.7639 53.2939 46.7893 50.8033 46.7893Z" fill="#381DDB"/>
<path d="M19.1958 20.8201C16.0831 20.8201 13.5508 23.3524 13.5508 26.4651C13.5508 29.5778 16.0831 32.1101 19.1958 32.1101C22.3085 32.1101 24.8408 29.5778 24.8408 26.4651C24.8408 23.3524 22.3085 20.8201 19.1958 20.8201ZM19.1958 29.8521C17.3284 29.8521 15.8088 28.3325 15.8088 26.4651C15.8088 24.5977 17.3284 23.0781 19.1958 23.0781C21.0632 23.0781 22.5828 24.5977 22.5828 26.4651C22.5828 28.3325 21.0632 29.8521 19.1958 29.8521Z" fill="#381DDB"/>
<path d="M23.1998 37.0259C23.4076 36.9469 23.6142 36.86 23.8196 36.7663L27.3196 39.0999L31.822 34.5974L29.4884 31.0975C29.5821 30.8909 29.669 30.6843 29.748 30.4777L33.8689 29.6535V23.2859L29.748 22.4617C29.5889 22.0496 29.4014 21.6376 29.1881 21.23L27.1897 22.2811C27.4505 22.779 27.6628 23.2836 27.8163 23.7782L28.0162 24.4183L31.6109 25.1375V27.8019L28.015 28.5211L27.8152 29.1613C27.6616 29.6558 27.4505 30.1593 27.1886 30.6583L26.877 31.2522L28.9148 34.3095L27.0317 36.1939L23.9743 34.1549L23.3816 34.4665C22.886 34.7273 22.3813 34.9384 21.8834 35.0942L21.2444 35.294L20.5252 38.8888H17.8596L17.1404 35.294L16.5014 35.0942C16.0035 34.9384 15.4989 34.7273 15.0032 34.4665L14.4105 34.1549L11.3532 36.1939L8.81516 33.6547L7.21875 35.2511L11.0664 39.0988L14.5663 36.7651C14.7718 36.8589 14.9784 36.9458 15.1861 37.0248L16.0103 41.1457H22.3768L23.1998 37.0259Z" fill="#381DDB"/>
<path d="M4.51953 23.2816V29.6492L8.6404 30.4734C8.79959 30.8855 8.987 31.2975 9.20039 31.7051L11.1987 30.654C10.9379 30.1561 10.7257 29.6515 10.5721 29.157L10.3723 28.5168L6.77754 27.7976V25.1332L10.3734 24.414L10.5733 23.7739C10.7268 23.2793 10.9379 22.7758 11.1999 22.2768L11.5115 21.6829L9.47361 18.6256L11.3579 16.7413L14.4164 18.7803L15.0091 18.4675C15.5036 18.2079 16.0072 17.9967 16.5051 17.8409L17.1441 17.6411L17.8632 14.0463H20.5288L21.248 17.6411L21.887 17.8409C22.3849 17.9967 22.8896 18.2079 23.3829 18.4675L23.9757 18.7803L27.0342 16.7413L29.5733 19.2804L31.1697 17.684L27.3232 13.8363L23.8221 16.1689C23.6155 16.0752 23.41 15.9894 23.2023 15.9092L22.3793 11.7883H16.0128L15.1886 15.9092C14.9809 15.9894 14.7754 16.0752 14.5688 16.1689L11.0678 13.8363L6.56642 18.3377L8.90007 21.8376C8.80636 22.0442 8.71943 22.2508 8.6404 22.4574L4.51953 23.2816Z" fill="#381DDB"/>
<path d="M20.3205 43.4021H18.0625V45.6601H20.3205V43.4021Z" fill="#381DDB"/>
<path d="M20.3205 47.9158H18.0625V50.1738H20.3205V47.9158Z" fill="#381DDB"/>
<path d="M20.3205 52.4353H18.0625V54.6933H20.3205V52.4353Z" fill="#381DDB"/>
<path d="M51.9357 18.563H49.6777V20.821H51.9357V18.563Z" fill="#381DDB"/>
<path d="M51.9357 14.051H49.6777V16.309H51.9357V14.051Z" fill="#381DDB"/>
<path d="M51.9357 9.53101H49.6777V11.789H51.9357V9.53101Z" fill="#381DDB"/>
<path d="M69.9997 46.5897V37.9641L64.4314 36.8521C64.3016 36.5258 64.1582 36.2029 64.0035 35.8845L61.9724 36.8724C62.1847 37.3105 62.3721 37.7575 62.5257 38.2046L62.7379 38.8154L67.7417 39.8157V44.737L62.7379 45.7384L62.5257 46.3492C62.371 46.7963 62.1847 47.2445 61.9724 47.6814L61.6891 48.2629L64.5217 52.5113L61.041 55.992L56.7914 53.1605L56.21 53.4439C55.7731 53.6561 55.3248 53.8435 54.8778 53.9971L54.267 54.2093L53.2678 59.2119H48.3453L47.3439 54.2082L46.7331 53.9959C46.286 53.8413 45.8378 53.655 45.4009 53.4427L44.8194 53.1593L40.5699 55.9909L36.4343 51.8565L34.8379 53.4529L40.2831 58.8969L45.008 55.747C45.131 55.8001 45.2552 55.852 45.3794 55.9017L46.4938 61.4699H55.1205L56.2326 55.9017C56.3568 55.852 56.4809 55.8001 56.604 55.747L61.3289 58.8969L67.4289 52.7992L64.2779 48.0732C64.3309 47.9501 64.3829 47.826 64.4325 47.7018L69.9997 46.5897Z" fill="#381DDB"/>
<path d="M34.186 31.7533L37.337 36.4782C37.284 36.6012 37.232 36.7254 37.1824 36.8496L31.6152 37.9628V46.5895L37.1835 47.7016C37.3133 48.0279 37.4567 48.3508 37.6114 48.668L39.6425 47.6802C39.4302 47.2432 39.2428 46.795 39.0893 46.3479L38.877 45.7371L33.8732 44.7368V39.8144L38.877 38.8129L39.0893 38.2022C39.2439 37.7551 39.4302 37.308 39.6425 36.8699L39.9258 36.2874L37.0932 32.04L40.5739 28.5593L44.8223 31.3909L45.4049 31.1086C45.8407 30.8964 46.29 30.709 46.7394 30.5531L47.3479 30.3409L48.346 25.3405H53.2696L54.2699 30.342L54.8784 30.5543C55.3266 30.7101 55.7771 30.8975 56.2129 31.1097L56.7954 31.392L61.0439 28.5605L65.1794 32.696L66.7759 31.0996L61.3307 25.6555L56.6046 28.8054C56.4827 28.7524 56.3585 28.7016 56.2343 28.6519L55.12 23.0825H46.4955L45.3823 28.6508C45.2581 28.7004 45.1339 28.7513 45.012 28.8043L40.286 25.6544L34.186 31.7533Z" fill="#381DDB"/>
</svg>
